Lady Gaga's Secret World 

An Unauthorized Biography    


An inside look at how the superstar rose to fame and why she continues to make splashes in headlines today. Now as an international sensation, Gaga's music reflects what she's been through. She wants everyone to embrace their inner freak, and she lovingly calls her fans her little monsters. Lady Gaga is the hardest working pop star out there, and it shows. Other pop stars are taking note and stepping up their own game, but Lady Gaga has set a high standard and she has no plans to slow down.  


INFO:  

General   

Format : MPEG-4 
Format profile : Base Media / Version 2 
Codec ID : mp42 
File size : 902 MiB 
Duration : 1h 1mn 
Overall bit rate mode : Variable 
Overall bit rate : 2 056 Kbps 

Video  

ID : 1 
Format : AVC 
Format/Info : Advanced Video Codec 
Format profile : Main@L3.0 
Format settings, CABAC : Yes 
Format settings, ReFrames : 2 frames 
Codec ID : avc1 
Codec ID/Info : Advanced Video Coding 
Duration : 1h 1mn 
Bit rate mode : Variable 
Bit rate : 1 860 Kbps 
Maximum bit rate : 7 530 Kbps 
Width : 720 pixels 
Height : 480 pixels 
Display aspect ratio : 16:9 
Original display aspect ratio : 16:9 
Frame rate mode : Constant 
Frame rate : 29.970 fps 
Standard : NTSC 
Color space : YUV 
Chroma subsampling : 4:2:0 
Bit depth : 8 bits 
Scan type : Progressive 
Bits/(Pixel*Frame) : 0.180 
Stream size : 816 MiB (90%) 
Language : English 

Audio  

ID : 2 
Format : AAC 
Format/Info : Advanced Audio Codec 
Format profile : LC 
Codec ID : 40 
Duration : 1h 1mn 
Bit rate mode : Variable 
Bit rate : 192 Kbps 
Maximum bit rate : 233 Kbps 
Channel(s) : 2 channels 
Channel positions : Front: L R 
Sampling rate : 48.0 KHz 
Compression mode : Lossy 
Stream size : 84.0 MiB (9%) 
Title : eng 
Language : English 

SIZE: 1.14GB